<svg aria-hidden="true" style="position:absolute;width:0;height:0;overflow:hidden" xmlns="http://www.w3.org/2000/svg">
  <defs>
    <symbol id="icon-apple" viewBox="0 0 32 32">
      <path fill="#fff" style="fill:var(--color1, #fff)"
        d="M9.437 31.4a7.157 7.157 0 0 1-1.659-1.533 20.531 20.531 0 0 1-1.419-1.939 18.752 18.752 0 0 1-2.373-4.848c-.667-2.003-.991-3.92-.991-5.796 0-2.093.453-3.92 1.336-5.453a7.704 7.704 0 0 1 2.8-2.909 7.464 7.464 0 0 1 3.787-1.12c.467 0 .973.067 1.507.2.387.107.853.28 1.427.493.733.28 1.133.453 1.267.493.427.16.787.227 1.067.227.213 0 .52-.067.86-.173.193-.067.56-.187 1.08-.413.515-.187.923-.347 1.247-.467.493-.147.971-.28 1.4-.347a6.61 6.61 0 0 1 1.531-.067 9.108 9.108 0 0 1 2.587.56c1.36.547 2.457 1.4 3.276 2.613a6.522 6.522 0 0 0-.967.733 8.154 8.154 0 0 0-1.64 2.007 6.805 6.805 0 0 0-.859 3.36c.02 1.444.387 2.713 1.12 3.813a7.11 7.11 0 0 0 2.045 2.048c.413.28.776.473 1.12.6-.16.5-.336.987-.54 1.467a18.881 18.881 0 0 1-1.667 3.08c-.576.84-1.029 1.467-1.373 1.88-.536.64-1.053 1.12-1.573 1.463a3.502 3.502 0 0 1-1.936.581c-.467.02-.933-.04-1.379-.169a13.164 13.164 0 0 1-1.141-.431 9.132 9.132 0 0 0-1.207-.453 6.262 6.262 0 0 0-3.099-.003 9.57 9.57 0 0 0-1.209.433c-.56.233-.927.387-1.14.453a5.964 5.964 0 0 1-1.32.233c-.693 0-1.339-.2-1.964-.617zm9.139-24.613c-.907.453-1.768.645-2.631.581-.133-.861 0-1.747.36-2.716a7.354 7.354 0 0 1 1.333-2.24 7.214 7.214 0 0 1 2.173-1.68c.88-.453 1.72-.693 2.52-.733.107.907 0 1.8-.333 2.76a7.927 7.927 0 0 1-1.333 2.347 6.944 6.944 0 0 1-2.089 1.681z" />
    </symbol>
    <symbol id="icon-android" viewBox="0 0 32 32">
      <path
        d="M28 12c-1.1 0-2 .9-2 2v8c0 1.1.9 2 2 2s2-.9 2-2v-8c0-1.1-.9-2-2-2zM4 12c-1.1 0-2 .9-2 2v8c0 1.1.9 2 2 2s2-.9 2-2v-8c0-1.1-.9-2-2-2zm3 11a3 3 0 0 0 3 3v4c0 1.1.9 2 2 2s2-.9 2-2v-4h4v4c0 1.1.9 2 2 2s2-.9 2-2v-4a3 3 0 0 0 3-3V12H7v11zM24.944 10a8.994 8.994 0 0 0-4.051-6.551l1.001-2.001a1 1 0 0 0-1.789-.895l-1.004 2.009-.261-.104C17.947 2.161 16.992 2 16 2s-1.947.161-2.84.458l-.261.104L11.895.553a1 1 0 0 0-1.789.895l1.001 2.001A8.996 8.996 0 0 0 7.056 10v1H25v-1h-.056zM13 8a1 1 0 0 1-.002-2h.005a1 1 0 0 1-.002 2zm6 0a1 1 0 0 1-.002-2h.005a1 1 0 0 1-.002 2z" />
    </symbol>
    <symbol id="icon-facebook" viewBox="0 0 32 32">
      <path
        d="M21.329 5.313h2.921V.225C23.746.156 22.013 0 19.994 0c-4.212 0-7.097 2.649-7.097 7.519V12H8.249v5.688h4.648V32h5.699V17.689h4.46l.708-5.688h-5.169V8.082c.001-1.644.444-2.769 2.735-2.769z" />
    </symbol>
    <symbol id="icon-linkedin" viewBox="0 0 32 32">
      <path
        d="M31.992 32v-.001H32V20.263c0-5.741-1.236-10.164-7.948-10.164-3.227 0-5.392 1.771-6.276 3.449h-.093v-2.913h-6.364v21.364h6.627V21.42c0-2.785.528-5.479 3.977-5.479 3.399 0 3.449 3.179 3.449 5.657v10.401h6.62zM.528 10.636h6.635V32H.528V10.636zM3.843 0C1.722 0 0 1.721 0 3.843s1.721 3.879 3.843 3.879c2.121 0 3.843-1.757 3.843-3.879A3.846 3.846 0 0 0 3.843 0z" />
    </symbol>
    <symbol id="icon-twitter" viewBox="0 0 32 32">
      <path
        d="M32 6.078c-1.19.522-2.458.868-3.78 1.036a6.523 6.523 0 0 0 2.886-3.626 13.11 13.11 0 0 1-4.16 1.588A6.574 6.574 0 0 0 22.154 3c-3.632 0-6.556 2.948-6.556 6.562 0 .52.044 1.02.152 1.496-5.454-.266-10.28-2.88-13.522-6.862a6.605 6.605 0 0 0-.898 3.316 6.57 6.57 0 0 0 2.914 5.452 6.479 6.479 0 0 1-2.964-.808v.072c0 3.188 2.274 5.836 5.256 6.446a6.548 6.548 0 0 1-1.72.216 5.8 5.8 0 0 1-1.242-.112c.85 2.598 3.262 4.508 6.13 4.57a13.182 13.182 0 0 1-8.134 2.798c-.538 0-1.054-.024-1.57-.09A18.469 18.469 0 0 0 10.064 29c12.072 0 18.672-10 18.672-18.668 0-.29-.01-.57-.024-.848A13.087 13.087 0 0 0 32 6.078z" />
    </symbol>
    <symbol id="icon-open-menu" viewBox="0 0 32 32">
      <path
        d="M4.799 8.001c0-0.424 0.169-0.831 0.469-1.131s0.707-0.469 1.131-0.469h19.2c0.424 0 0.831 0.169 1.131 0.469s0.469 0.707 0.469 1.131-0.169 0.831-0.469 1.131c-0.3 0.3-0.707 0.469-1.131 0.469h-19.2c-0.424 0-0.831-0.169-1.131-0.469s-0.469-0.707-0.469-1.131z">
      </path>
      <path
        d="M4.799 16.001c0-0.424 0.169-0.831 0.469-1.131s0.707-0.469 1.131-0.469h19.2c0.424 0 0.831 0.169 1.131 0.469s0.469 0.707 0.469 1.131c0 0.424-0.169 0.831-0.469 1.131s-0.707 0.469-1.131 0.469h-19.2c-0.424 0-0.831-0.169-1.131-0.469s-0.469-0.707-0.469-1.131z">
      </path>
      <path
        d="M4.799 24.001c0-0.424 0.169-0.831 0.469-1.131s0.707-0.469 1.131-0.469h19.2c0.424 0 0.831 0.169 1.131 0.469s0.469 0.707 0.469 1.131c0 0.424-0.169 0.831-0.469 1.131s-0.707 0.469-1.131 0.469h-19.2c-0.424 0-0.831-0.169-1.131-0.469s-0.469-0.707-0.469-1.131z">
      </path>
      <symbol id="icon-marcer" viewBox="0 0 18 32">
        <path d="M0.914 26.286l10.286-10.286-10.286-10.286 2.057-4.114 14.4 14.4-14.4 14.4-2.057-4.114z"></path>
      </symbol>
    </symbol>
  </defs>
</svg>